<svg width="1440" height="407" viewBox="0 0 1440 407" fill="none" xmlns="http://www.w3.org/2000/svg">
<path fill-rule="evenodd" clip-rule="evenodd" d="M1440 0L1380.04 21.4375C1320.08 42.875 1200.17 85.75 1080.25 92.8958C960.333 100.042 840.417 71.4583 720.5 107.188C600.583 142.917 480.667 242.958 360.75 264.396C240.833 285.833 120.917 228.667 60.9583 200.083L0.999954 171.5V343H60.9583C120.917 343 240.833 343 360.75 343C480.667 343 600.583 343 720.5 343C840.417 343 960.333 343 1080.25 343C1200.17 343 1320.08 343 1380.04 343H1440V0Z" fill="#5D6378" fill-opacity="0.2"/>
<path fill-rule="evenodd" clip-rule="evenodd" d="M1440.16 0.0653687L1380.18 25.4657C1320.2 50.8661 1200.24 101.667 1080.2 110.33C960.152 118.993 840.026 85.5181 720.048 127.891C600.071 170.265 480.242 288.486 360.232 314.004C240.221 339.522 120.029 272.337 59.9326 238.744L-0.163574 205.152L0.23309 407.413L60.2631 407.295C120.293 407.178 240.353 406.942 360.413 406.707C480.474 406.471 600.534 406.236 720.594 406C840.654 405.765 960.714 405.529 1080.77 405.294C1200.83 405.059 1320.89 404.823 1380.92 404.705L1440.95 404.588L1440.16 0.0653687Z" fill="#383E54"/>
</svg>
