			<svg viewBox="0 0 640 640" fill="none" xmlns="http://www.w3.org/2000/svg">
				<path
					fill-rule="evenodd"
					clip-rule="evenodd"
					d="M361.492 127.636C358.746 129.085 355.306 131.11 353.846 132.136C352.386 133.161 350.934 134 350.619 134C350.305 134 345.526 136.7 340 140C334.474 143.3 329.513 146 328.976 146C328.439 146 327.996 146.338 327.992 146.75C327.988 147.162 326.975 147.969 325.742 148.542C322.587 150.007 314.599 154.401 314 155C313.725 155.275 312.6 155.983 311.5 156.573C302.628 161.334 300.436 162.574 300 163.083C299.725 163.404 296.575 165.2 293 167.075C289.425 168.949 286.35 170.824 286.167 171.242C285.983 171.659 285.431 172 284.94 172C284.449 172 279.526 174.7 274 178C268.474 181.3 263.513 184 262.976 184C262.439 184 261.996 184.338 261.992 184.75C261.988 185.162 260.975 185.969 259.742 186.542C256.587 188.007 248.599 192.401 248 193C247.725 193.275 246.426 194.105 245.113 194.844C238.993 198.29 236.117 199.948 231.206 202.86C228.294 204.587 225.482 206 224.956 206C224.43 206 224 206.45 224 207C224 207.55 223.574 208 223.054 208C222.533 208 219.271 209.65 215.804 211.666C209.608 215.268 196 227.928 196 230.089C196 230.695 195.181 232.386 194.181 233.846C191.414 237.882 188.861 246.722 188.258 254.353C186.73 273.685 195.348 291.894 211.18 302.781C213.754 304.552 216.342 306 216.93 306C217.519 306 218.004 306.337 218.008 306.75C218.012 307.163 219.025 307.969 220.258 308.542C223.798 310.186 231.449 314.442 232 315.073C232.275 315.388 233.367 315.967 234.428 316.36C236.091 316.976 236.159 317.262 234.928 318.448C234.142 319.204 231.925 320.695 230 321.762C218.757 327.99 208.7 334.588 204.824 338.279C179.284 362.597 183.43 403.264 213.398 422.383C216.204 424.173 220.975 427.003 224 428.672C227.025 430.341 231.975 433.186 235 434.993C240.995 438.575 245.329 441.033 251.5 444.35C253.7 445.532 255.725 446.725 256 447C256.275 447.275 257.574 448.105 258.887 448.844C265.007 452.29 267.883 453.948 272.794 456.86C275.706 458.587 278.481 460 278.961 460C279.441 460 279.983 460.337 280.167 460.75C280.487 461.471 287.085 465.295 291.742 467.458C292.975 468.031 293.988 468.837 293.992 469.25C293.996 469.663 294.439 470 294.976 470C295.513 470 300.474 472.7 306 476C311.526 479.3 316.487 482 317.024 482C317.561 482 318.004 482.337 318.008 482.75C318.012 483.163 319.025 483.969 320.258 484.542C324.915 486.705 331.513 490.529 331.833 491.25C332.017 491.662 332.569 492 333.06 492C333.551 492 338.474 494.7 344 498C349.526 501.3 354.305 504 354.619 504C354.934 504 356.386 504.831 357.846 505.847C362.134 508.832 372.013 514 373.43 514C374.148 514 380.083 510.78 386.618 506.844C393.153 502.907 399.901 498.9 401.613 497.938C403.325 496.975 405.8 495.583 407.113 494.844C408.426 494.105 409.725 493.275 410 493C410.275 492.725 412.525 491.409 415 490.075C417.475 488.741 419.725 487.391 420 487.075C420.275 486.759 422.3 485.521 424.5 484.324C426.7 483.127 433.675 479.031 440 475.221L451.5 468.294L451.778 455.293C452.084 440.986 452.427 441.867 445 437.902C442.525 436.581 440.275 435.228 440 434.896C439.725 434.564 436.575 432.764 433 430.896C429.425 429.028 426.275 427.237 426 426.915C425.725 426.593 423.025 424.971 420 423.311C416.975 421.651 412.025 418.814 409 417.007C401.185 412.337 397.08 409.996 392.5 407.596C390.3 406.443 388.275 405.225 388 404.89C387.725 404.554 385.925 403.481 384 402.507C382.075 401.532 377.245 398.769 373.267 396.367C369.289 393.965 365.614 392 365.1 392C364.587 392 364.017 391.662 363.833 391.25C363.513 390.529 356.915 386.705 352.258 384.542C351.025 383.969 350.012 383.163 350.008 382.75C350.004 382.337 349.438 381.998 348.75 381.995C348.063 381.992 346.15 380.876 344.5 379.515C341.533 377.068 341.525 377.034 343.75 376.404C344.988 376.053 346 375.422 346 375C346 374.578 346.788 373.976 347.75 373.661C348.712 373.346 351.75 371.715 354.5 370.035C357.25 368.356 361.75 365.802 364.5 364.36C367.25 362.918 369.725 361.459 370 361.119C370.531 360.462 377.982 356.288 381.742 354.542C382.975 353.969 383.988 353.163 383.992 352.75C383.996 352.337 384.43 352 384.956 352C385.482 352 388.294 350.587 391.206 348.86C394.118 347.133 397.962 344.883 399.75 343.86C401.538 342.837 404.462 341.163 406.25 340.14C408.038 339.117 411.882 336.867 414.794 335.14C417.706 333.413 420.518 332 421.044 332C421.57 332 422 331.55 422 331C422 330.45 422.426 330 422.946 330C423.773 330 428.163 327.545 439.5 320.745C441.15 319.755 443.288 318.68 444.25 318.356C445.212 318.032 446 317.369 446 316.883C446 316.398 446.605 316 447.345 316C448.085 316 449.435 315.177 450.345 314.171C451.692 312.683 452 310.102 452 300.294C452 287.116 452.289 287.793 445 283.902C442.525 282.581 440.275 281.275 440 281C439.565 280.565 437.119 279.198 428.5 274.573C427.4 273.983 426.275 273.275 426 273C425.011 272.011 419.463 268.865 417.75 268.322C416.788 268.016 416 267.369 416 266.883C416 266.398 415.542 266 414.982 266C414.422 266 411.001 264.2 407.38 262C403.758 259.8 400.636 258 400.442 258C400.247 258 397.706 256.587 394.794 254.86C391.882 253.133 388.15 250.947 386.5 250.002C382.143 247.505 374.728 243.15 373.069 242.113C371.846 241.348 371.871 240.986 373.248 239.609C374.133 238.724 375.094 238 375.385 238C375.675 238 378.294 236.587 381.206 234.86C384.118 233.133 387.962 230.883 389.75 229.86C391.538 228.837 394.462 227.163 396.25 226.14C398.038 225.117 401.882 222.867 404.794 221.14C407.706 219.413 410.481 218 410.961 218C411.441 218 411.983 217.662 412.167 217.25C412.35 216.838 414.525 215.409 417 214.075C419.475 212.741 421.725 211.38 422 211.051C422.275 210.722 425.425 208.924 429 207.056C432.575 205.188 435.65 203.286 435.833 202.83C436.017 202.373 436.573 202 437.07 202C437.567 202 441.13 200.11 444.987 197.799L452 193.599V182.867C452 171.011 452.071 171.143 443.5 166.966C441.85 166.161 440.275 165.277 440 165.002C439.725 164.726 437.475 163.427 435 162.117C432.525 160.806 428.7 158.781 426.5 157.617C424.3 156.452 422.275 155.272 422 154.994C421.725 154.716 418.8 153.092 415.5 151.387C405.515 146.226 400.526 143.526 400 143C399.459 142.459 394.17 139.542 387 135.83C384.525 134.548 382.275 133.259 382 132.964C381.447 132.37 367.422 125 366.846 125C366.647 125 364.238 126.186 361.492 127.636ZM359.101 142.088C355.582 144.272 350.407 147.33 347.601 148.883C344.796 150.436 340.118 153.123 337.206 154.853C334.294 156.584 331.753 158 331.558 158C331.364 158 328.242 159.8 324.62 162C320.999 164.2 317.578 166 317.018 166C316.458 166 315.996 166.338 315.992 166.75C315.988 167.162 314.975 167.995 313.742 168.601C309.005 170.927 302.478 174.525 302 175.075C301.725 175.391 299.475 176.741 297 178.075C294.525 179.409 292.35 180.838 292.167 181.25C291.983 181.662 291.441 182 290.961 182C290.481 182 287.706 183.413 284.794 185.14C281.882 186.867 278.038 189.117 276.25 190.14C274.462 191.163 271.538 192.837 269.75 193.86C267.962 194.883 264.118 197.133 261.206 198.86C258.294 200.587 255.753 202 255.558 202C255.364 202 252.242 203.8 248.62 206C244.999 208.2 241.578 210 241.018 210C240.458 210 240 210.45 240 211C240 211.55 239.542 212 238.982 212C238.422 212 235.001 213.8 231.38 216C227.758 218.2 224.585 220 224.328 220C224.071 220 221.754 221.438 219.18 223.195C213.61 226.998 206 234.772 206 236.659C206 237.397 205.633 238 205.185 238C204.737 238 203.335 240.932 202.069 244.517C200.114 250.055 199.829 252.494 200.173 260.767C200.514 268.995 201.029 271.428 203.501 276.5C206.757 283.178 215.758 292.863 220.75 295.059C222.537 295.845 224 296.828 224 297.244C224 297.66 224.43 298 224.956 298C225.482 298 228.202 299.35 231 301C233.798 302.65 236.73 304 237.514 304C238.95 304 241.095 302.892 250.794 297.14C253.706 295.413 256.518 294 257.044 294C257.57 294 258 293.55 258 293C258 292.45 258.43 292 258.956 292C259.482 292 262.294 290.587 265.206 288.86C268.118 287.133 271.962 284.883 273.75 283.86C275.538 282.837 278.462 281.163 280.25 280.14C282.038 279.117 285.882 276.867 288.794 275.14C291.706 273.413 294.518 272 295.044 272C295.57 272 296 271.55 296 271C296 270.45 296.426 270 296.946 270C297.773 270 302.163 267.545 313.5 260.745C315.15 259.755 317.288 258.68 318.25 258.356C319.212 258.032 320 257.369 320 256.883C320 256.398 320.458 256 321.018 256C321.578 256 324.999 254.2 328.62 252C332.242 249.8 335.376 248 335.586 248C335.796 248 342.732 243.95 351 239C359.268 234.05 366.204 230 366.414 230C366.624 230 369.758 228.2 373.38 226C377.001 223.8 380.422 222 380.982 222C381.542 222 382.004 221.662 382.008 221.25C382.012 220.838 383.025 220.031 384.258 219.458C388.915 217.295 395.513 213.471 395.833 212.75C396.017 212.338 396.569 212 397.06 212C397.551 212 402.474 209.3 408 206C413.526 202.7 418.216 200 418.421 200C418.627 200 421.758 198.2 425.38 196C429.001 193.8 432.422 192 432.982 192C433.542 192 434 191.66 434 191.244C434 190.828 435.372 189.881 437.049 189.139C439.938 187.86 440.082 187.524 439.799 182.725C439.469 177.13 440.289 177.888 427 170.912C423.425 169.035 420.275 167.264 420 166.976C419.725 166.688 416.575 164.924 413 163.056C403.871 158.285 402.567 157.567 402 157C401.725 156.725 399.7 155.572 397.5 154.438C387.12 149.087 380.456 145.501 380 145.022C379.725 144.733 378.15 143.839 376.5 143.034C374.85 142.23 372.306 140.768 370.846 139.786C367.247 137.365 366.465 137.518 359.101 142.088Z"
					fill="#0573F8"
				/>
				<path
					fill-rule="evenodd"
					clip-rule="evenodd"
					d="M0 640.003L640.5 639.5L641.003 0H0V640.003ZM0.494 320.5C0.494 496.5 0.609 568.351 0.75 480.169C0.891 391.987 0.891 247.987 0.75 160.169C0.609 72.351 0.494 144.5 0.494 320.5ZM361.492 127.636C358.746 129.085 355.306 131.11 353.846 132.136C352.386 133.161 350.934 134 350.619 134C350.305 134 345.526 136.7 340 140C334.474 143.3 329.513 146 328.976 146C328.439 146 327.996 146.338 327.992 146.75C327.988 147.162 326.975 147.969 325.742 148.542C322.587 150.007 314.599 154.401 314 155C313.725 155.275 312.6 155.983 311.5 156.573C302.628 161.334 300.436 162.574 300 163.083C299.725 163.404 296.575 165.2 293 167.075C289.425 168.949 286.35 170.824 286.167 171.242C285.983 171.659 285.431 172 284.94 172C284.449 172 279.526 174.7 274 178C268.474 181.3 263.513 184 262.976 184C262.439 184 261.996 184.338 261.992 184.75C261.988 185.162 260.975 185.969 259.742 186.542C256.587 188.007 248.599 192.401 248 193C247.725 193.275 246.426 194.105 245.113 194.844C238.993 198.29 236.117 199.948 231.206 202.86C228.294 204.587 225.482 206 224.956 206C224.43 206 224 206.45 224 207C224 207.55 223.574 208 223.054 208C222.533 208 219.271 209.65 215.804 211.666C209.608 215.268 196 227.928 196 230.089C196 230.695 195.181 232.386 194.181 233.846C191.414 237.882 188.861 246.722 188.258 254.353C186.73 273.685 195.348 291.894 211.18 302.781C213.754 304.552 216.342 306 216.93 306C217.519 306 218.004 306.337 218.008 306.75C218.012 307.163 219.025 307.969 220.258 308.542C223.798 310.186 231.449 314.442 232 315.073C232.275 315.388 233.367 315.967 234.428 316.36C236.091 316.976 236.159 317.262 234.928 318.448C234.142 319.204 231.925 320.695 230 321.762C218.757 327.99 208.7 334.588 204.824 338.279C179.284 362.597 183.43 403.264 213.398 422.383C216.204 424.173 220.975 427.003 224 428.672C227.025 430.341 231.975 433.186 235 434.993C240.995 438.575 245.329 441.033 251.5 444.35C253.7 445.532 255.725 446.725 256 447C256.275 447.275 257.574 448.105 258.887 448.844C265.007 452.29 267.883 453.948 272.794 456.86C275.706 458.587 278.481 460 278.961 460C279.441 460 279.983 460.337 280.167 460.75C280.487 461.471 287.085 465.295 291.742 467.458C292.975 468.031 293.988 468.837 293.992 469.25C293.996 469.663 294.439 470 294.976 470C295.513 470 300.474 472.7 306 476C311.526 479.3 316.487 482 317.024 482C317.561 482 318.004 482.337 318.008 482.75C318.012 483.163 319.025 483.969 320.258 484.542C324.915 486.705 331.513 490.529 331.833 491.25C332.017 491.662 332.569 492 333.06 492C333.551 492 338.474 494.7 344 498C349.526 501.3 354.305 504 354.619 504C354.934 504 356.386 504.831 357.846 505.847C362.134 508.832 372.013 514 373.43 514C374.148 514 380.083 510.78 386.618 506.844C393.153 502.907 399.901 498.9 401.613 497.938C403.325 496.975 405.8 495.583 407.113 494.844C408.426 494.105 409.725 493.275 410 493C410.275 492.725 412.525 491.409 415 490.075C417.475 488.741 419.725 487.391 420 487.075C420.275 486.759 422.3 485.521 424.5 484.324C426.7 483.127 433.675 479.031 440 475.221L451.5 468.294L451.778 455.293C452.084 440.986 452.427 441.867 445 437.902C442.525 436.581 440.275 435.228 440 434.896C439.725 434.564 436.575 432.764 433 430.896C429.425 429.028 426.275 427.237 426 426.915C425.725 426.593 423.025 424.971 420 423.311C416.975 421.651 412.025 418.814 409 417.007C401.185 412.337 397.08 409.996 392.5 407.596C390.3 406.443 388.275 405.225 388 404.89C387.725 404.554 385.925 403.481 384 402.507C382.075 401.532 377.245 398.769 373.267 396.367C369.289 393.965 365.614 392 365.1 392C364.587 392 364.017 391.662 363.833 391.25C363.513 390.529 356.915 386.705 352.258 384.542C351.025 383.969 350.012 383.163 350.008 382.75C350.004 382.337 349.438 381.998 348.75 381.995C348.063 381.992 346.15 380.876 344.5 379.515C341.533 377.068 341.525 377.034 343.75 376.404C344.988 376.053 346 375.422 346 375C346 374.578 346.788 373.976 347.75 373.661C348.712 373.346 351.75 371.715 354.5 370.035C357.25 368.356 361.75 365.802 364.5 364.36C367.25 362.918 369.725 361.459 370 361.119C370.531 360.462 377.982 356.288 381.742 354.542C382.975 353.969 383.988 353.163 383.992 352.75C383.996 352.337 384.43 352 384.956 352C385.482 352 388.294 350.587 391.206 348.86C394.118 347.133 397.962 344.883 399.75 343.86C401.538 342.837 404.462 341.163 406.25 340.14C408.038 339.117 411.882 336.867 414.794 335.14C417.706 333.413 420.518 332 421.044 332C421.57 332 422 331.55 422 331C422 330.45 422.426 330 422.946 330C423.773 330 428.163 327.545 439.5 320.745C441.15 319.755 443.288 318.68 444.25 318.356C445.212 318.032 446 317.369 446 316.883C446 316.398 446.605 316 447.345 316C448.085 316 449.435 315.177 450.345 314.171C451.692 312.683 452 310.102 452 300.294C452 287.116 452.289 287.793 445 283.902C442.525 282.581 440.275 281.275 440 281C439.565 280.565 437.119 279.198 428.5 274.573C427.4 273.983 426.275 273.275 426 273C425.011 272.011 419.463 268.865 417.75 268.322C416.788 268.016 416 267.369 416 266.883C416 266.398 415.542 266 414.982 266C414.422 266 411.001 264.2 407.38 262C403.758 259.8 400.636 258 400.442 258C400.247 258 397.706 256.587 394.794 254.86C391.882 253.133 388.15 250.947 386.5 250.002C382.143 247.505 374.728 243.15 373.069 242.113C371.846 241.348 371.871 240.986 373.248 239.609C374.133 238.724 375.094 238 375.385 238C375.675 238 378.294 236.587 381.206 234.86C384.118 233.133 387.962 230.883 389.75 229.86C391.538 228.837 394.462 227.163 396.25 226.14C398.038 225.117 401.882 222.867 404.794 221.14C407.706 219.413 410.481 218 410.961 218C411.441 218 411.983 217.662 412.167 217.25C412.35 216.838 414.525 215.409 417 214.075C419.475 212.741 421.725 211.38 422 211.051C422.275 210.722 425.425 208.924 429 207.056C432.575 205.188 435.65 203.286 435.833 202.83C436.017 202.373 436.573 202 437.07 202C437.567 202 441.13 200.11 444.987 197.799L452 193.599V182.867C452 171.011 452.071 171.143 443.5 166.966C441.85 166.161 440.275 165.277 440 165.002C439.725 164.726 437.475 163.427 435 162.117C432.525 160.806 428.7 158.781 426.5 157.617C424.3 156.452 422.275 155.272 422 154.994C421.725 154.716 418.8 153.092 415.5 151.387C405.515 146.226 400.526 143.526 400 143C399.459 142.459 394.17 139.542 387 135.83C384.525 134.548 382.275 133.259 382 132.964C381.447 132.37 367.422 125 366.846 125C366.647 125 364.238 126.186 361.492 127.636ZM359.101 142.088C355.582 144.272 350.407 147.33 347.601 148.883C344.796 150.436 340.118 153.123 337.206 154.853C334.294 156.584 331.753 158 331.558 158C331.364 158 328.242 159.8 324.62 162C320.999 164.2 317.578 166 317.018 166C316.458 166 315.996 166.338 315.992 166.75C315.988 167.162 314.975 167.995 313.742 168.601C309.005 170.927 302.478 174.525 302 175.075C301.725 175.391 299.475 176.741 297 178.075C294.525 179.409 292.35 180.838 292.167 181.25C291.983 181.662 291.441 182 290.961 182C290.481 182 287.706 183.413 284.794 185.14C281.882 186.867 278.038 189.117 276.25 190.14C274.462 191.163 271.538 192.837 269.75 193.86C267.962 194.883 264.118 197.133 261.206 198.86C258.294 200.587 255.753 202 255.558 202C255.364 202 252.242 203.8 248.62 206C244.999 208.2 241.578 210 241.018 210C240.458 210 240 210.45 240 211C240 211.55 239.542 212 238.982 212C238.422 212 235.001 213.8 231.38 216C227.758 218.2 224.585 220 224.328 220C224.071 220 221.754 221.438 219.18 223.195C213.61 226.998 206 234.772 206 236.659C206 237.397 205.633 238 205.185 238C204.737 238 203.335 240.932 202.069 244.517C200.114 250.055 199.829 252.494 200.173 260.767C200.514 268.995 201.029 271.428 203.501 276.5C206.757 283.178 215.758 292.863 220.75 295.059C222.537 295.845 224 296.828 224 297.244C224 297.66 224.43 298 224.956 298C225.482 298 228.202 299.35 231 301C233.798 302.65 236.73 304 237.514 304C238.95 304 241.095 302.892 250.794 297.14C253.706 295.413 256.518 294 257.044 294C257.57 294 258 293.55 258 293C258 292.45 258.43 292 258.956 292C259.482 292 262.294 290.587 265.206 288.86C268.118 287.133 271.962 284.883 273.75 283.86C275.538 282.837 278.462 281.163 280.25 280.14C282.038 279.117 285.882 276.867 288.794 275.14C291.706 273.413 294.518 272 295.044 272C295.57 272 296 271.55 296 271C296 270.45 296.426 270 296.946 270C297.773 270 302.163 267.545 313.5 260.745C315.15 259.755 317.288 258.68 318.25 258.356C319.212 258.032 320 257.369 320 256.883C320 256.398 320.458 256 321.018 256C321.578 256 324.999 254.2 328.62 252C332.242 249.8 335.376 248 335.586 248C335.796 248 342.732 243.95 351 239C359.268 234.05 366.204 230 366.414 230C366.624 230 369.758 228.2 373.38 226C377.001 223.8 380.422 222 380.982 222C381.542 222 382.004 221.662 382.008 221.25C382.012 220.838 383.025 220.031 384.258 219.458C388.915 217.295 395.513 213.471 395.833 212.75C396.017 212.338 396.569 212 397.06 212C397.551 212 402.474 209.3 408 206C413.526 202.7 418.216 200 418.421 200C418.627 200 421.758 198.2 425.38 196C429.001 193.8 432.422 192 432.982 192C433.542 192 434 191.66 434 191.244C434 190.828 435.372 189.881 437.049 189.139C439.938 187.86 440.082 187.524 439.799 182.725C439.469 177.13 440.289 177.888 427 170.912C423.425 169.035 420.275 167.264 420 166.976C419.725 166.688 416.575 164.924 413 163.056C403.871 158.285 402.567 157.567 402 157C401.725 156.725 399.7 155.572 397.5 154.438C387.12 149.087 380.456 145.501 380 145.022C379.725 144.733 378.15 143.839 376.5 143.034C374.85 142.23 372.306 140.768 370.846 139.786C367.247 137.365 366.465 137.518 359.101 142.088Z"
					fill="#1B1B2B"
				/>
			</svg>