			<svg
				viewBox="0 0 1440 431"
				fill="none"
				xmlns="http://www.w3.org/2000/svg"
			>
				<path
					fill-rule="evenodd"
					clip-rule="evenodd"
					d="M0 218L39.6421 196C80.2753 174 159.56 131 239.835 153C320.11 174 400.385 262 479.67 283C559.945 305 640.22 262 720.496 276C799.78 291 880.055 363 960.33 356C1040.61 349 1119.89 262 1200.17 254C1280.44 247 1360.72 320 1400.36 356L1440 392V0H1400.36C1360.72 0 1280.44 0 1200.17 0C1119.89 0 1040.61 0 960.33 0C880.055 0 799.78 0 720.496 0C640.22 0 559.945 0 479.67 0C400.385 0 320.11 0 239.835 0C159.56 0 80.2753 0 39.6421 0H0V218Z"
					fill="#383E54"
				/>
				<path
					fill-rule="evenodd"
					clip-rule="evenodd"
					d="M0 257L39.6421 235C80.2753 213 159.56 170 239.835 192C320.11 213 400.385 301 479.67 322C559.945 344 640.22 301 720.496 315C799.78 330 880.055 402 960.33 395C1040.61 388 1119.89 301 1200.17 293C1280.44 286 1360.72 359 1400.36 395L1440 431V39H1400.36C1360.72 39 1280.44 39 1200.17 39C1119.89 39 1040.61 39 960.33 39C880.055 39 799.78 39 720.496 39C640.22 39 559.945 39 479.67 39C400.385 39 320.11 39 239.835 39C159.56 39 80.2753 39 39.6421 39H0V257Z"
					fill="#383E54"
					fill-opacity="0.2"
				/>
			</svg>